<svg xmlns="http://www.w3.org/2000/svg" viewBox="0 0 720 300" font-family="-apple-system,BlinkMacSystemFont,Segoe UI,Helvetica,Arial,sans-serif">
  <style>
    .title{fill:#1f2937;font-size:17px;font-weight:700}
    .sub{fill:#6b7280;font-size:12.5px}
    .foot{fill:#6b7280;font-size:12.5px}.em{fill:#059669;font-weight:700}
    .task{fill:#9aa3ad;font-size:9.5px}
    .div{stroke:#eef2f6;stroke-width:1}
    @media (prefers-color-scheme:dark){
      .title{fill:#e6edf3}.sub{fill:#9198a1}.foot{fill:#9198a1}.em{fill:#3fb950}
      .task{fill:#6e7681}.div{stroke:#21262d}
    }
    .lab{fill:#4b5563;font-size:12px;font-weight:600}
    .keep{fill:#94a3b8}.cut{fill:#e0653f;opacity:.32}
    .edge{stroke:#059669;stroke-width:2}
    .edgel{fill:#059669;font-size:11px;font-weight:700}
    .base{stroke:#cbd5e1;stroke-width:1}
    @media (prefers-color-scheme:dark){
      .lab{fill:#b0b8c0}.keep{fill:#768390}.cut{fill:#e0653f;opacity:.4}
      .edge{stroke:#3fb950}.edgel{fill:#3fb950}.base{stroke:#444c56}
    }
  </style>
  <text x="16" y="28" class="title">What the razor takes off</text>
  <text x="16" y="50" class="sub">Every no-plugin session in the suite, one column each &#8212; height is the lines it added, and the edge is where the median razor run lands on that same job</text>
  <text x="16" y="74" class="lab">no plugin, session by session</text>
    <rect x="17.3" y="240.4" width="5.2" height="5.6" class="keep"/>
    <rect x="25.1" y="240.4" width="5.2" height="5.6" class="keep"/>
    <rect x="33.0" y="240.4" width="5.2" height="5.6" class="keep"/>
    <rect x="33.0" y="193.2" width="5.2" height="47.2" class="cut"/>
    <rect x="40.8" y="240.4" width="5.2" height="5.6" class="keep"/>
    <rect x="48.6" y="240.4" width="5.2" height="5.6" class="keep"/>
    <rect x="56.4" y="240.4" width="5.2" height="5.6" class="keep"/>
    <rect x="64.2" y="240.4" width="5.2" height="5.6" class="keep"/>
    <rect x="72.1" y="240.4" width="5.2" height="5.6" class="keep"/>
    <rect x="79.9" y="240.4" width="5.2" height="5.6" class="keep"/>
    <rect x="79.9" y="232.1" width="5.2" height="8.3" class="cut"/>
    <rect x="87.7" y="240.4" width="5.2" height="5.6" class="keep"/>
    <rect x="87.7" y="234.9" width="5.2" height="5.6" class="cut"/>
    <rect x="95.5" y="240.4" width="5.2" height="5.6" class="keep"/>
    <rect x="95.5" y="234.9" width="5.2" height="5.6" class="cut"/>
    <rect x="103.3" y="240.4" width="5.2" height="5.6" class="keep"/>
    <rect x="103.3" y="234.9" width="5.2" height="5.6" class="cut"/>
    <rect x="111.1" y="240.4" width="5.2" height="5.6" class="keep"/>
    <rect x="111.1" y="234.9" width="5.2" height="5.6" class="cut"/>
    <rect x="119.0" y="240.4" width="5.2" height="5.6" class="keep"/>
    <rect x="119.0" y="234.9" width="5.2" height="5.6" class="cut"/>
    <rect x="126.8" y="240.4" width="5.2" height="5.6" class="keep"/>
    <rect x="126.8" y="234.9" width="5.2" height="5.6" class="cut"/>
    <rect x="134.6" y="240.4" width="5.2" height="5.6" class="keep"/>
    <rect x="134.6" y="234.9" width="5.2" height="5.6" class="cut"/>
    <rect x="142.4" y="236.3" width="5.2" height="9.7" class="keep"/>
    <rect x="142.4" y="196.0" width="5.2" height="40.3" class="cut"/>
    <rect x="150.2" y="236.3" width="5.2" height="9.7" class="keep"/>
    <rect x="150.2" y="190.4" width="5.2" height="45.8" class="cut"/>
    <rect x="158.1" y="236.3" width="5.2" height="9.7" class="keep"/>
    <rect x="158.1" y="193.2" width="5.2" height="43.1" class="cut"/>
    <rect x="165.9" y="236.3" width="5.2" height="9.7" class="keep"/>
    <rect x="165.9" y="190.4" width="5.2" height="45.8" class="cut"/>
    <rect x="173.7" y="236.3" width="5.2" height="9.7" class="keep"/>
    <rect x="173.7" y="204.3" width="5.2" height="31.9" class="cut"/>
    <rect x="181.5" y="236.3" width="5.2" height="9.7" class="keep"/>
    <rect x="181.5" y="190.4" width="5.2" height="45.8" class="cut"/>
    <rect x="189.3" y="236.3" width="5.2" height="9.7" class="keep"/>
    <rect x="189.3" y="193.2" width="5.2" height="43.1" class="cut"/>
    <rect x="197.1" y="236.3" width="5.2" height="9.7" class="keep"/>
    <rect x="197.1" y="193.2" width="5.2" height="43.1" class="cut"/>
    <rect x="205.0" y="243.2" width="5.2" height="2.8" class="keep"/>
    <rect x="212.8" y="237.7" width="5.2" height="8.3" class="keep"/>
    <rect x="220.6" y="243.2" width="5.2" height="2.8" class="keep"/>
    <rect x="228.4" y="237.7" width="5.2" height="8.3" class="keep"/>
    <rect x="236.2" y="243.2" width="5.2" height="2.8" class="keep"/>
    <rect x="244.1" y="243.2" width="5.2" height="2.8" class="keep"/>
    <rect x="251.9" y="243.2" width="5.2" height="2.8" class="keep"/>
    <rect x="259.7" y="237.7" width="5.2" height="8.3" class="keep"/>
    <rect x="267.5" y="197.4" width="5.2" height="48.6" class="keep"/>
    <rect x="267.5" y="190.4" width="5.2" height="6.9" class="cut"/>
    <rect x="275.3" y="197.4" width="5.2" height="48.6" class="keep"/>
    <rect x="275.3" y="179.3" width="5.2" height="18.1" class="cut"/>
    <rect x="283.1" y="197.4" width="5.2" height="48.6" class="keep"/>
    <rect x="283.1" y="182.1" width="5.2" height="15.3" class="cut"/>
    <rect x="291.0" y="197.4" width="5.2" height="48.6" class="keep"/>
    <rect x="291.0" y="179.3" width="5.2" height="18.1" class="cut"/>
    <rect x="298.8" y="197.4" width="5.2" height="48.6" class="keep"/>
    <rect x="298.8" y="179.3" width="5.2" height="18.1" class="cut"/>
    <rect x="306.6" y="197.4" width="5.2" height="48.6" class="keep"/>
    <rect x="306.6" y="176.6" width="5.2" height="20.8" class="cut"/>
    <rect x="314.4" y="197.4" width="5.2" height="48.6" class="keep"/>
    <rect x="314.4" y="176.6" width="5.2" height="20.8" class="cut"/>
    <rect x="322.2" y="197.4" width="5.2" height="48.6" class="keep"/>
    <rect x="322.2" y="173.8" width="5.2" height="23.6" class="cut"/>
    <rect x="330.1" y="204.3" width="5.2" height="41.7" class="keep"/>
    <rect x="330.1" y="179.3" width="5.2" height="25.0" class="cut"/>
    <rect x="337.9" y="204.3" width="5.2" height="41.7" class="keep"/>
    <rect x="337.9" y="198.8" width="5.2" height="5.6" class="cut"/>
    <rect x="345.7" y="204.3" width="5.2" height="41.7" class="keep"/>
    <rect x="345.7" y="198.8" width="5.2" height="5.6" class="cut"/>
    <rect x="353.5" y="204.3" width="5.2" height="41.7" class="keep"/>
    <rect x="353.5" y="201.6" width="5.2" height="2.8" class="cut"/>
    <rect x="361.3" y="204.3" width="5.2" height="41.7" class="keep"/>
    <rect x="369.1" y="204.3" width="5.2" height="41.7" class="keep"/>
    <rect x="369.1" y="201.6" width="5.2" height="2.8" class="cut"/>
    <rect x="377.0" y="204.3" width="5.2" height="41.7" class="keep"/>
    <rect x="377.0" y="198.8" width="5.2" height="5.6" class="cut"/>
    <rect x="384.8" y="204.3" width="5.2" height="41.7" class="keep"/>
    <rect x="392.6" y="212.7" width="5.2" height="33.3" class="keep"/>
    <rect x="392.6" y="204.3" width="5.2" height="8.3" class="cut"/>
    <rect x="400.4" y="212.7" width="5.2" height="33.3" class="keep"/>
    <rect x="408.2" y="212.7" width="5.2" height="33.3" class="keep"/>
    <rect x="408.2" y="207.1" width="5.2" height="5.6" class="cut"/>
    <rect x="416.1" y="212.7" width="5.2" height="33.3" class="keep"/>
    <rect x="423.9" y="212.7" width="5.2" height="33.3" class="keep"/>
    <rect x="431.7" y="212.7" width="5.2" height="33.3" class="keep"/>
    <rect x="439.5" y="212.7" width="5.2" height="33.3" class="keep"/>
    <rect x="439.5" y="207.1" width="5.2" height="5.6" class="cut"/>
    <rect x="447.3" y="212.7" width="5.2" height="33.3" class="keep"/>
    <rect x="455.1" y="212.7" width="5.2" height="33.3" class="keep"/>
    <rect x="455.1" y="207.1" width="5.2" height="5.6" class="cut"/>
    <rect x="463.0" y="212.7" width="5.2" height="33.3" class="keep"/>
    <rect x="470.8" y="212.7" width="5.2" height="33.3" class="keep"/>
    <rect x="478.6" y="223.8" width="5.2" height="22.2" class="keep"/>
    <rect x="486.4" y="212.7" width="5.2" height="33.3" class="keep"/>
    <rect x="486.4" y="207.1" width="5.2" height="5.6" class="cut"/>
    <rect x="494.2" y="223.8" width="5.2" height="22.2" class="keep"/>
    <rect x="502.1" y="212.7" width="5.2" height="33.3" class="keep"/>
    <rect x="509.9" y="212.7" width="5.2" height="33.3" class="keep"/>
    <rect x="517.7" y="234.9" width="5.2" height="11.1" class="keep"/>
    <rect x="517.7" y="229.3" width="5.2" height="5.6" class="cut"/>
    <rect x="525.5" y="234.9" width="5.2" height="11.1" class="keep"/>
    <rect x="525.5" y="232.1" width="5.2" height="2.8" class="cut"/>
    <rect x="533.3" y="234.9" width="5.2" height="11.1" class="keep"/>
    <rect x="533.3" y="229.3" width="5.2" height="5.6" class="cut"/>
    <rect x="541.1" y="234.9" width="5.2" height="11.1" class="keep"/>
    <rect x="541.1" y="229.3" width="5.2" height="5.6" class="cut"/>
    <rect x="549.0" y="234.9" width="5.2" height="11.1" class="keep"/>
    <rect x="549.0" y="232.1" width="5.2" height="2.8" class="cut"/>
    <rect x="556.8" y="234.9" width="5.2" height="11.1" class="keep"/>
    <rect x="564.6" y="234.9" width="5.2" height="11.1" class="keep"/>
    <rect x="564.6" y="226.6" width="5.2" height="8.3" class="cut"/>
    <rect x="572.4" y="234.9" width="5.2" height="11.1" class="keep"/>
    <rect x="572.4" y="232.1" width="5.2" height="2.8" class="cut"/>
    <rect x="580.2" y="119.6" width="5.2" height="126.4" class="keep"/>
    <rect x="580.2" y="96.0" width="5.2" height="23.6" class="cut"/>
    <rect x="588.1" y="119.6" width="5.2" height="126.4" class="keep"/>
    <rect x="588.1" y="98.8" width="5.2" height="20.8" class="cut"/>
    <rect x="595.9" y="119.6" width="5.2" height="126.4" class="keep"/>
    <rect x="595.9" y="96.0" width="5.2" height="23.6" class="cut"/>
    <rect x="603.7" y="123.8" width="5.2" height="122.2" class="keep"/>
    <rect x="611.5" y="119.6" width="5.2" height="126.4" class="keep"/>
    <rect x="611.5" y="107.1" width="5.2" height="12.5" class="cut"/>
    <rect x="619.3" y="119.6" width="5.2" height="126.4" class="keep"/>
    <rect x="619.3" y="118.2" width="5.2" height="1.4" class="cut"/>
    <rect x="627.1" y="119.6" width="5.2" height="126.4" class="keep"/>
    <rect x="627.1" y="107.1" width="5.2" height="12.5" class="cut"/>
    <rect x="635.0" y="119.6" width="5.2" height="126.4" class="keep"/>
    <rect x="635.0" y="96.0" width="5.2" height="23.6" class="cut"/>
    <rect x="642.8" y="215.4" width="5.2" height="30.6" class="keep"/>
    <rect x="642.8" y="190.4" width="5.2" height="25.0" class="cut"/>
    <rect x="650.6" y="215.4" width="5.2" height="30.6" class="keep"/>
    <rect x="650.6" y="209.9" width="5.2" height="5.6" class="cut"/>
    <rect x="658.4" y="215.4" width="5.2" height="30.6" class="keep"/>
    <rect x="658.4" y="209.9" width="5.2" height="5.6" class="cut"/>
    <rect x="666.2" y="215.4" width="5.2" height="30.6" class="keep"/>
    <rect x="666.2" y="196.0" width="5.2" height="19.4" class="cut"/>
    <rect x="674.1" y="215.4" width="5.2" height="30.6" class="keep"/>
    <rect x="674.1" y="196.0" width="5.2" height="19.4" class="cut"/>
    <rect x="681.9" y="215.4" width="5.2" height="30.6" class="keep"/>
    <rect x="681.9" y="209.9" width="5.2" height="5.6" class="cut"/>
    <rect x="689.7" y="215.4" width="5.2" height="30.6" class="keep"/>
    <rect x="689.7" y="196.0" width="5.2" height="19.4" class="cut"/>
    <rect x="697.5" y="215.4" width="5.2" height="30.6" class="keep"/>
    <rect x="697.5" y="209.9" width="5.2" height="5.6" class="cut"/>
  <line x1="16.0" y1="240.4" x2="78.5" y2="240.4" class="edge"/>
  <line x1="78.5" y1="240.4" x2="78.5" y2="240.4" class="edge"/>
  <line x1="78.5" y1="240.4" x2="141.1" y2="240.4" class="edge"/>
  <line x1="141.1" y1="240.4" x2="141.1" y2="236.3" class="edge"/>
  <line x1="141.1" y1="236.3" x2="203.6" y2="236.3" class="edge"/>
  <line x1="203.6" y1="236.3" x2="203.6" y2="237.7" class="edge"/>
  <line x1="203.6" y1="237.7" x2="266.2" y2="237.7" class="edge"/>
  <line x1="266.2" y1="237.7" x2="266.2" y2="197.4" class="edge"/>
  <line x1="266.2" y1="197.4" x2="328.7" y2="197.4" class="edge"/>
  <line x1="328.7" y1="197.4" x2="328.7" y2="204.3" class="edge"/>
  <line x1="328.7" y1="204.3" x2="391.3" y2="204.3" class="edge"/>
  <line x1="391.3" y1="204.3" x2="391.3" y2="212.7" class="edge"/>
  <line x1="391.3" y1="212.7" x2="453.8" y2="212.7" class="edge"/>
  <line x1="453.8" y1="212.7" x2="453.8" y2="212.7" class="edge"/>
  <line x1="453.8" y1="212.7" x2="516.4" y2="212.7" class="edge"/>
  <line x1="516.4" y1="212.7" x2="516.4" y2="234.9" class="edge"/>
  <line x1="516.4" y1="234.9" x2="578.9" y2="234.9" class="edge"/>
  <line x1="578.9" y1="234.9" x2="578.9" y2="119.6" class="edge"/>
  <line x1="578.9" y1="119.6" x2="641.5" y2="119.6" class="edge"/>
  <line x1="641.5" y1="119.6" x2="641.5" y2="215.4" class="edge"/>
  <line x1="641.5" y1="215.4" x2="704.0" y2="215.4" class="edge"/>
  <line x1="16" y1="246.0" x2="704" y2="246.0" class="base"/>
  <text x="47.3" y="260" class="task" text-anchor="middle">one-line GET</text>
  <text x="109.8" y="260" class="task" text-anchor="middle">&#8220;just use axios&#8221;</text>
  <text x="172.4" y="260" class="task" text-anchor="middle">parse a query string</text>
  <text x="234.9" y="260" class="task" text-anchor="middle">unique id</text>
  <text x="297.5" y="260" class="task" text-anchor="middle">read a .env</text>
  <text x="360.0" y="260" class="task" text-anchor="middle">&#8220;dotenv does this&#8221;</text>
  <text x="422.5" y="260" class="task" text-anchor="middle">retry a call</text>
  <text x="485.1" y="260" class="task" text-anchor="middle">&#8220;p-retry is the move&#8221;</text>
  <text x="547.6" y="260" class="task" text-anchor="middle">slugify a title</text>
  <text x="610.2" y="260" class="task" text-anchor="middle">edit distance</text>
  <text x="672.7" y="260" class="task" text-anchor="middle">add a CLI command</text>
  <text x="704" y="74" class="edgel" text-anchor="end">&#9472; razor&#8217;s edge</text>
  <text x="16" y="292" class="foot"><tspan class="em">328 lines</tspan> of code sitting above the edge across 88 sessions &#8212; a third of it on one job. razor&#8217;s runs average 11.9 lines against 15.1.</text>
</svg>
