<svg xmlns="http://www.w3.org/2000/svg" viewBox="0 0 720 300" font-family="-apple-system,BlinkMacSystemFont,Segoe UI,Helvetica,Arial,sans-serif">
  <style>
    .title{fill:#1f2937;font-size:17px;font-weight:700}
    .sub{fill:#6b7280;font-size:12.5px}
    .foot{fill:#6b7280;font-size:12.5px}.em{fill:#059669;font-weight:700}
    .task{fill:#9aa3ad;font-size:9.5px}
    .div{stroke:#eef2f6;stroke-width:1}
    @media (prefers-color-scheme:dark){
      .title{fill:#e6edf3}.sub{fill:#9198a1}.foot{fill:#9198a1}.em{fill:#3fb950}
      .task{fill:#6e7681}.div{stroke:#21262d}
    }
    .lab{fill:#4b5563;font-size:12px;font-weight:600}
    .keep{fill:#94a3b8}.cut{fill:#e0653f;opacity:.32}
    .edge{stroke:#059669;stroke-width:2}
    .edgel{fill:#059669;font-size:11px;font-weight:700}
    .base{stroke:#cbd5e1;stroke-width:1}
    @media (prefers-color-scheme:dark){
      .lab{fill:#b0b8c0}.keep{fill:#768390}.cut{fill:#e0653f;opacity:.4}
      .edge{stroke:#3fb950}.edgel{fill:#3fb950}.base{stroke:#30363d}
    }
  </style>
  <text x="16" y="30" class="title">What the razor takes off</text>
  <text x="16" y="52" class="sub">Every no-plugin session in the suite, one column each — height is the lines it added, and the edge is where the median razor run lands on that same job</text>
  <text x="16" y="76" class="lab">no plugin, session by session</text>
  <rect x="21.8" y="230.2" width="9.6" height="15.8" class="keep"/>
  <rect x="28.6" y="230.2" width="9.6" height="15.8" class="keep"/>
  <rect x="35.4" y="230.2" width="9.6" height="15.8" class="keep"/>
  <rect x="42.2" y="230.2" width="9.6" height="15.8" class="keep"/>
  <rect x="49.0" y="230.2" width="9.6" height="15.8" class="keep"/>
  <rect x="55.8" y="230.2" width="9.6" height="15.8" class="keep"/>
  <rect x="62.6" y="230.2" width="9.6" height="15.8" class="keep"/>
  <rect x="62.6" y="206.5" width="9.6" height="23.7" class="cut"/>
  <rect x="69.4" y="230.2" width="9.6" height="15.8" class="keep"/>
  <rect x="69.4" y="206.5" width="9.6" height="23.7" class="cut"/>
  <text x="50.4" y="260.0" class="task" text-anchor="middle">one-line GET</text>
  <line x1="84.8" y1="90.0" x2="84.8" y2="246.0" class="div"/>
  <rect x="90.6" y="230.2" width="9.6" height="15.8" class="keep"/>
  <rect x="90.6" y="214.4" width="9.6" height="15.8" class="cut"/>
  <rect x="97.4" y="230.2" width="9.6" height="15.8" class="keep"/>
  <rect x="97.4" y="214.4" width="9.6" height="15.8" class="cut"/>
  <rect x="104.2" y="230.2" width="9.6" height="15.8" class="keep"/>
  <rect x="104.2" y="214.4" width="9.6" height="15.8" class="cut"/>
  <rect x="111.0" y="230.2" width="9.6" height="15.8" class="keep"/>
  <rect x="111.0" y="214.4" width="9.6" height="15.8" class="cut"/>
  <rect x="117.8" y="230.2" width="9.6" height="15.8" class="keep"/>
  <rect x="117.8" y="214.4" width="9.6" height="15.8" class="cut"/>
  <rect x="124.6" y="230.2" width="9.6" height="15.8" class="keep"/>
  <rect x="124.6" y="206.5" width="9.6" height="23.7" class="cut"/>
  <rect x="131.4" y="230.2" width="9.6" height="15.8" class="keep"/>
  <rect x="131.4" y="206.5" width="9.6" height="23.7" class="cut"/>
  <rect x="138.2" y="230.2" width="9.6" height="15.8" class="keep"/>
  <rect x="138.2" y="206.5" width="9.6" height="23.7" class="cut"/>
  <text x="119.2" y="260.0" class="task" text-anchor="middle">&#8220;just use axios&#8221;</text>
  <line x1="153.6" y1="90.0" x2="153.6" y2="246.0" class="div"/>
  <rect x="159.4" y="222.3" width="9.6" height="23.7" class="keep"/>
  <rect x="166.2" y="222.3" width="9.6" height="23.7" class="keep"/>
  <rect x="173.0" y="222.3" width="9.6" height="23.7" class="keep"/>
  <rect x="179.8" y="222.3" width="9.6" height="23.7" class="keep"/>
  <rect x="186.6" y="222.3" width="9.6" height="23.7" class="keep"/>
  <rect x="193.4" y="222.3" width="9.6" height="23.7" class="keep"/>
  <rect x="200.2" y="222.3" width="9.6" height="23.7" class="keep"/>
  <rect x="207.0" y="222.3" width="9.6" height="23.7" class="keep"/>
  <rect x="207.0" y="214.4" width="9.6" height="7.9" class="cut"/>
  <text x="188.0" y="260.0" class="task" text-anchor="middle">unique id</text>
  <line x1="222.4" y1="90.0" x2="222.4" y2="246.0" class="div"/>
  <rect x="228.2" y="222.3" width="9.6" height="23.7" class="keep"/>
  <rect x="235.0" y="214.4" width="9.6" height="31.6" class="keep"/>
  <rect x="241.8" y="210.5" width="9.6" height="35.5" class="keep"/>
  <rect x="241.8" y="206.5" width="9.6" height="3.9" class="cut"/>
  <rect x="248.6" y="210.5" width="9.6" height="35.5" class="keep"/>
  <rect x="248.6" y="206.5" width="9.6" height="3.9" class="cut"/>
  <rect x="255.4" y="210.5" width="9.6" height="35.5" class="keep"/>
  <rect x="255.4" y="206.5" width="9.6" height="3.9" class="cut"/>
  <rect x="262.2" y="210.5" width="9.6" height="35.5" class="keep"/>
  <rect x="262.2" y="206.5" width="9.6" height="3.9" class="cut"/>
  <rect x="269.0" y="210.5" width="9.6" height="35.5" class="keep"/>
  <rect x="269.0" y="198.6" width="9.6" height="11.8" class="cut"/>
  <rect x="275.8" y="210.5" width="9.6" height="35.5" class="keep"/>
  <rect x="275.8" y="190.7" width="9.6" height="19.7" class="cut"/>
  <text x="256.8" y="260.0" class="task" text-anchor="middle">slugify a title</text>
  <line x1="291.2" y1="90.0" x2="291.2" y2="246.0" class="div"/>
  <rect x="297.0" y="178.9" width="9.6" height="67.1" class="keep"/>
  <rect x="297.0" y="174.9" width="9.6" height="3.9" class="cut"/>
  <rect x="303.8" y="178.9" width="9.6" height="67.1" class="keep"/>
  <rect x="303.8" y="167.1" width="9.6" height="11.8" class="cut"/>
  <rect x="310.6" y="178.9" width="9.6" height="67.1" class="keep"/>
  <rect x="310.6" y="167.1" width="9.6" height="11.8" class="cut"/>
  <rect x="317.4" y="178.9" width="9.6" height="67.1" class="keep"/>
  <rect x="317.4" y="167.1" width="9.6" height="11.8" class="cut"/>
  <rect x="324.2" y="178.9" width="9.6" height="67.1" class="keep"/>
  <rect x="324.2" y="167.1" width="9.6" height="11.8" class="cut"/>
  <rect x="331.0" y="178.9" width="9.6" height="67.1" class="keep"/>
  <rect x="331.0" y="167.1" width="9.6" height="11.8" class="cut"/>
  <rect x="337.8" y="178.9" width="9.6" height="67.1" class="keep"/>
  <rect x="337.8" y="167.1" width="9.6" height="11.8" class="cut"/>
  <rect x="344.6" y="178.9" width="9.6" height="67.1" class="keep"/>
  <rect x="344.6" y="167.1" width="9.6" height="11.8" class="cut"/>
  <text x="325.6" y="260.0" class="task" text-anchor="middle">&#8220;dotenv does this&#8221;</text>
  <line x1="360.0" y1="90.0" x2="360.0" y2="246.0" class="div"/>
  <rect x="365.8" y="171.0" width="9.6" height="75.0" class="keep"/>
  <rect x="365.8" y="167.1" width="9.6" height="3.9" class="cut"/>
  <rect x="372.6" y="171.0" width="9.6" height="75.0" class="keep"/>
  <rect x="372.6" y="167.1" width="9.6" height="3.9" class="cut"/>
  <rect x="379.4" y="171.0" width="9.6" height="75.0" class="keep"/>
  <rect x="379.4" y="167.1" width="9.6" height="3.9" class="cut"/>
  <rect x="386.2" y="171.0" width="9.6" height="75.0" class="keep"/>
  <rect x="386.2" y="167.1" width="9.6" height="3.9" class="cut"/>
  <rect x="393.0" y="171.0" width="9.6" height="75.0" class="keep"/>
  <rect x="393.0" y="167.1" width="9.6" height="3.9" class="cut"/>
  <rect x="399.8" y="171.0" width="9.6" height="75.0" class="keep"/>
  <rect x="399.8" y="159.2" width="9.6" height="11.8" class="cut"/>
  <rect x="406.6" y="171.0" width="9.6" height="75.0" class="keep"/>
  <rect x="406.6" y="119.7" width="9.6" height="51.3" class="cut"/>
  <rect x="413.4" y="171.0" width="9.6" height="75.0" class="keep"/>
  <rect x="413.4" y="103.9" width="9.6" height="67.1" class="cut"/>
  <text x="394.4" y="260.0" class="task" text-anchor="middle">read a .env</text>
  <line x1="428.8" y1="90.0" x2="428.8" y2="246.0" class="div"/>
  <rect x="434.6" y="198.6" width="9.6" height="47.4" class="keep"/>
  <rect x="441.4" y="190.7" width="9.6" height="55.3" class="keep"/>
  <rect x="448.2" y="190.7" width="9.6" height="55.3" class="keep"/>
  <rect x="455.0" y="182.8" width="9.6" height="63.2" class="keep"/>
  <rect x="461.8" y="174.9" width="9.6" height="71.1" class="keep"/>
  <rect x="468.6" y="167.1" width="9.6" height="78.9" class="keep"/>
  <rect x="475.4" y="159.2" width="9.6" height="86.8" class="keep"/>
  <rect x="482.2" y="159.2" width="9.6" height="86.8" class="keep"/>
  <rect x="482.2" y="127.6" width="9.6" height="31.6" class="cut"/>
  <text x="463.2" y="260.0" class="task" text-anchor="middle">&#8220;tenacity&#8217;s the move&#8221;</text>
  <line x1="497.6" y1="90.0" x2="497.6" y2="246.0" class="div"/>
  <rect x="503.4" y="159.2" width="9.6" height="86.8" class="keep"/>
  <rect x="510.2" y="159.2" width="9.6" height="86.8" class="keep"/>
  <rect x="517.0" y="159.2" width="9.6" height="86.8" class="keep"/>
  <rect x="523.8" y="159.2" width="9.6" height="86.8" class="keep"/>
  <rect x="530.6" y="159.2" width="9.6" height="86.8" class="keep"/>
  <rect x="530.6" y="151.3" width="9.6" height="7.9" class="cut"/>
  <rect x="537.4" y="159.2" width="9.6" height="86.8" class="keep"/>
  <rect x="537.4" y="143.4" width="9.6" height="15.8" class="cut"/>
  <rect x="544.2" y="159.2" width="9.6" height="86.8" class="keep"/>
  <rect x="544.2" y="135.5" width="9.6" height="23.7" class="cut"/>
  <rect x="551.0" y="159.2" width="9.6" height="86.8" class="keep"/>
  <rect x="551.0" y="135.5" width="9.6" height="23.7" class="cut"/>
  <text x="532.0" y="260.0" class="task" text-anchor="middle">retry a call</text>
  <line x1="566.4" y1="90.0" x2="566.4" y2="246.0" class="div"/>
  <rect x="572.2" y="139.4" width="9.6" height="106.6" class="keep"/>
  <rect x="572.2" y="119.7" width="9.6" height="19.7" class="cut"/>
  <rect x="579.0" y="139.4" width="9.6" height="106.6" class="keep"/>
  <rect x="579.0" y="119.7" width="9.6" height="19.7" class="cut"/>
  <rect x="585.8" y="139.4" width="9.6" height="106.6" class="keep"/>
  <rect x="585.8" y="119.7" width="9.6" height="19.7" class="cut"/>
  <rect x="592.6" y="139.4" width="9.6" height="106.6" class="keep"/>
  <rect x="592.6" y="119.7" width="9.6" height="19.7" class="cut"/>
  <rect x="599.4" y="139.4" width="9.6" height="106.6" class="keep"/>
  <rect x="599.4" y="111.8" width="9.6" height="27.6" class="cut"/>
  <rect x="606.2" y="139.4" width="9.6" height="106.6" class="keep"/>
  <rect x="606.2" y="96.0" width="9.6" height="43.4" class="cut"/>
  <rect x="613.0" y="139.4" width="9.6" height="106.6" class="keep"/>
  <rect x="613.0" y="96.0" width="9.6" height="43.4" class="cut"/>
  <rect x="619.8" y="139.4" width="9.6" height="106.6" class="keep"/>
  <rect x="619.8" y="96.0" width="9.6" height="43.4" class="cut"/>
  <text x="600.8" y="260.0" class="task" text-anchor="middle">parse a .toml</text>
  <line x1="635.2" y1="90.0" x2="635.2" y2="246.0" class="div"/>
  <rect x="641.0" y="151.3" width="9.6" height="94.7" class="keep"/>
  <rect x="647.8" y="135.5" width="9.6" height="110.5" class="keep"/>
  <rect x="647.8" y="127.6" width="9.6" height="7.9" class="cut"/>
  <rect x="654.6" y="135.5" width="9.6" height="110.5" class="keep"/>
  <rect x="654.6" y="127.6" width="9.6" height="7.9" class="cut"/>
  <rect x="661.4" y="135.5" width="9.6" height="110.5" class="keep"/>
  <rect x="661.4" y="127.6" width="9.6" height="7.9" class="cut"/>
  <rect x="668.2" y="135.5" width="9.6" height="110.5" class="keep"/>
  <rect x="668.2" y="127.6" width="9.6" height="7.9" class="cut"/>
  <rect x="675.0" y="135.5" width="9.6" height="110.5" class="keep"/>
  <rect x="675.0" y="127.6" width="9.6" height="7.9" class="cut"/>
  <rect x="681.8" y="135.5" width="9.6" height="110.5" class="keep"/>
  <rect x="681.8" y="111.8" width="9.6" height="23.7" class="cut"/>
  <rect x="688.6" y="135.5" width="9.6" height="110.5" class="keep"/>
  <rect x="688.6" y="111.8" width="9.6" height="23.7" class="cut"/>
  <text x="669.6" y="260.0" class="task" text-anchor="middle">a postgres client</text>
  <line x1="16.0" y1="230.2" x2="84.8" y2="230.2" class="edge"/>
  <line x1="84.8" y1="230.2" x2="84.8" y2="230.2" class="edge"/>
  <line x1="84.8" y1="230.2" x2="153.6" y2="230.2" class="edge"/>
  <line x1="153.6" y1="230.2" x2="153.6" y2="222.3" class="edge"/>
  <line x1="153.6" y1="222.3" x2="222.4" y2="222.3" class="edge"/>
  <line x1="222.4" y1="222.3" x2="222.4" y2="210.5" class="edge"/>
  <line x1="222.4" y1="210.5" x2="291.2" y2="210.5" class="edge"/>
  <line x1="291.2" y1="210.5" x2="291.2" y2="178.9" class="edge"/>
  <line x1="291.2" y1="178.9" x2="360.0" y2="178.9" class="edge"/>
  <line x1="360.0" y1="178.9" x2="360.0" y2="171.0" class="edge"/>
  <line x1="360.0" y1="171.0" x2="428.8" y2="171.0" class="edge"/>
  <line x1="428.8" y1="171.0" x2="428.8" y2="159.2" class="edge"/>
  <line x1="428.8" y1="159.2" x2="497.6" y2="159.2" class="edge"/>
  <line x1="497.6" y1="159.2" x2="497.6" y2="159.2" class="edge"/>
  <line x1="497.6" y1="159.2" x2="566.4" y2="159.2" class="edge"/>
  <line x1="566.4" y1="159.2" x2="566.4" y2="139.4" class="edge"/>
  <line x1="566.4" y1="139.4" x2="635.2" y2="139.4" class="edge"/>
  <line x1="635.2" y1="139.4" x2="635.2" y2="135.5" class="edge"/>
  <line x1="635.2" y1="135.5" x2="704.0" y2="135.5" class="edge"/>
  <line x1="16.0" y1="246.0" x2="704.0" y2="246.0" class="base"/>
  <text x="20.0" y="127.5" class="edgel">─ razor’s edge</text>
  <text x="16" y="286" class="foot"><tspan class="em">116 lines</tspan> of code sitting above the edge across 80 sessions — a quarter of it on the TOML-parsing job. razor’s runs average 8.2 lines against 9.1.</text>
</svg>