<svg xmlns="http://www.w3.org/2000/svg" viewBox="0 0 700 340" font-family="-apple-system,BlinkMacSystemFont,'Segoe UI',Helvetica,Arial,sans-serif" role="img" aria-label="Columns of code sliced by razor&#8217;s edge; the pale tops never ship"><style>.bg{fill:#f2f1ec}.bg{stroke:rgba(20,20,19,.14)}.ink{fill:#161612}.mut{fill:#6d6a60}.sd{fill:#b9b5a8}.gh{fill:rgba(20,20,19,.13)}.ed{stroke:#059669}.gl{stroke:#059669}.el{fill:#059669}.bl{stroke:rgba(20,20,19,.14)}@media(prefers-color-scheme:dark){.bg{fill:#141413}.bg{stroke:#30363d}.ink{fill:#ffffff}.mut{fill:#b9b9b1}.sd{fill:#3a3a37}.gh{fill:rgba(255,255,255,.10)}.ed{stroke:#3fb950}.gl{stroke:#3fb950}.el{fill:#3fb950}.bl{stroke:#30363d}}</style><rect class="bg" width="700" height="340" rx="14"/><text class="el" x="24" y="196" font-size="13.5" font-weight="700">&#9472; the razor&#8217;s edge</text><rect class="sd" x="24.0" y="217.6" width="6.2" height="10.4" rx="2"/><rect class="sd" x="31.8" y="217.6" width="6.2" height="10.4" rx="2"/><rect class="sd" x="39.6" y="217.6" width="6.2" height="10.4" rx="2"/><rect class="sd" x="47.4" y="217.6" width="6.2" height="10.4" rx="2"/><rect class="sd" x="55.2" y="217.6" width="6.2" height="10.4" rx="2"/><rect class="sd" x="63.0" y="217.6" width="6.2" height="10.4" rx="2"/><rect class="sd" x="70.8" y="217.6" width="6.2" height="10.4" rx="2"/><rect class="sd" x="78.6" y="217.6" width="6.2" height="10.4" rx="2"/><rect class="gh" x="78.6" y="201.9" width="6.2" height="15.6" rx="2"/><rect class="sd" x="98.6" y="217.6" width="6.2" height="10.4" rx="2"/><rect class="gh" x="98.6" y="212.4" width="6.2" height="5.2" rx="2"/><rect class="sd" x="106.4" y="217.6" width="6.2" height="10.4" rx="2"/><rect class="gh" x="106.4" y="207.1" width="6.2" height="10.4" rx="2"/><rect class="sd" x="114.2" y="217.6" width="6.2" height="10.4" rx="2"/><rect class="gh" x="114.2" y="207.1" width="6.2" height="10.4" rx="2"/><rect class="sd" x="122.0" y="217.6" width="6.2" height="10.4" rx="2"/><rect class="gh" x="122.0" y="207.1" width="6.2" height="10.4" rx="2"/><rect class="sd" x="129.8" y="217.6" width="6.2" height="10.4" rx="2"/><rect class="gh" x="129.8" y="207.1" width="6.2" height="10.4" rx="2"/><rect class="sd" x="137.6" y="217.6" width="6.2" height="10.4" rx="2"/><rect class="gh" x="137.6" y="207.1" width="6.2" height="10.4" rx="2"/><rect class="sd" x="145.4" y="217.6" width="6.2" height="10.4" rx="2"/><rect class="gh" x="145.4" y="207.1" width="6.2" height="10.4" rx="2"/><rect class="sd" x="153.2" y="217.6" width="6.2" height="10.4" rx="2"/><rect class="gh" x="153.2" y="201.9" width="6.2" height="15.6" rx="2"/><rect class="sd" x="173.2" y="217.6" width="6.2" height="10.4" rx="2"/><rect class="gh" x="173.2" y="144.6" width="6.2" height="73.0" rx="2"/><rect class="sd" x="181.0" y="217.6" width="6.2" height="10.4" rx="2"/><rect class="gh" x="181.0" y="134.1" width="6.2" height="83.4" rx="2"/><rect class="sd" x="188.8" y="217.6" width="6.2" height="10.4" rx="2"/><rect class="gh" x="188.8" y="134.1" width="6.2" height="83.4" rx="2"/><rect class="sd" x="196.6" y="217.6" width="6.2" height="10.4" rx="2"/><rect class="gh" x="196.6" y="128.9" width="6.2" height="88.6" rx="2"/><rect class="sd" x="204.4" y="217.6" width="6.2" height="10.4" rx="2"/><rect class="gh" x="204.4" y="128.9" width="6.2" height="88.6" rx="2"/><rect class="sd" x="212.2" y="217.6" width="6.2" height="10.4" rx="2"/><rect class="gh" x="212.2" y="123.7" width="6.2" height="93.9" rx="2"/><rect class="sd" x="220.0" y="217.6" width="6.2" height="10.4" rx="2"/><rect class="gh" x="220.0" y="118.5" width="6.2" height="99.1" rx="2"/><rect class="sd" x="227.8" y="217.6" width="6.2" height="10.4" rx="2"/><rect class="gh" x="227.8" y="82.0" width="6.2" height="135.6" rx="2"/><rect class="sd" x="247.8" y="222.8" width="6.2" height="5.2" rx="2"/><rect class="sd" x="255.6" y="212.4" width="6.2" height="15.6" rx="2"/><rect class="sd" x="263.4" y="212.4" width="6.2" height="15.6" rx="2"/><rect class="sd" x="271.2" y="212.4" width="6.2" height="15.6" rx="2"/><rect class="sd" x="279.0" y="212.4" width="6.2" height="15.6" rx="2"/><rect class="sd" x="286.8" y="212.4" width="6.2" height="15.6" rx="2"/><rect class="sd" x="294.6" y="212.4" width="6.2" height="15.6" rx="2"/><rect class="sd" x="302.4" y="212.4" width="6.2" height="15.6" rx="2"/><rect class="sd" x="322.4" y="207.1" width="6.2" height="20.9" rx="2"/><rect class="sd" x="330.2" y="207.1" width="6.2" height="20.9" rx="2"/><rect class="sd" x="338.0" y="207.1" width="6.2" height="20.9" rx="2"/><rect class="gh" x="338.0" y="196.7" width="6.2" height="10.4" rx="2"/><rect class="sd" x="345.8" y="207.1" width="6.2" height="20.9" rx="2"/><rect class="gh" x="345.8" y="196.7" width="6.2" height="10.4" rx="2"/><rect class="sd" x="353.6" y="207.1" width="6.2" height="20.9" rx="2"/><rect class="gh" x="353.6" y="196.7" width="6.2" height="10.4" rx="2"/><rect class="sd" x="361.4" y="207.1" width="6.2" height="20.9" rx="2"/><rect class="gh" x="361.4" y="196.7" width="6.2" height="10.4" rx="2"/><rect class="sd" x="369.2" y="207.1" width="6.2" height="20.9" rx="2"/><rect class="gh" x="369.2" y="191.5" width="6.2" height="15.6" rx="2"/><rect class="sd" x="377.0" y="207.1" width="6.2" height="20.9" rx="2"/><rect class="gh" x="377.0" y="186.3" width="6.2" height="20.9" rx="2"/><rect class="sd" x="397.0" y="186.3" width="6.2" height="41.7" rx="2"/><rect class="sd" x="404.8" y="186.3" width="6.2" height="41.7" rx="2"/><rect class="sd" x="412.6" y="186.3" width="6.2" height="41.7" rx="2"/><rect class="sd" x="420.4" y="186.3" width="6.2" height="41.7" rx="2"/><rect class="sd" x="428.2" y="165.4" width="6.2" height="62.6" rx="2"/><rect class="sd" x="436.0" y="165.4" width="6.2" height="62.6" rx="2"/><rect class="sd" x="443.8" y="165.4" width="6.2" height="62.6" rx="2"/><rect class="sd" x="451.6" y="165.4" width="6.2" height="62.6" rx="2"/><rect class="sd" x="471.6" y="165.4" width="6.2" height="62.6" rx="2"/><rect class="sd" x="479.4" y="165.4" width="6.2" height="62.6" rx="2"/><rect class="sd" x="487.2" y="165.4" width="6.2" height="62.6" rx="2"/><rect class="sd" x="495.0" y="165.4" width="6.2" height="62.6" rx="2"/><rect class="sd" x="502.8" y="165.4" width="6.2" height="62.6" rx="2"/><rect class="sd" x="510.6" y="165.4" width="6.2" height="62.6" rx="2"/><rect class="gh" x="510.6" y="155.0" width="6.2" height="10.4" rx="2"/><rect class="sd" x="518.4" y="165.4" width="6.2" height="62.6" rx="2"/><rect class="gh" x="518.4" y="155.0" width="6.2" height="10.4" rx="2"/><rect class="sd" x="526.2" y="165.4" width="6.2" height="62.6" rx="2"/><rect class="gh" x="526.2" y="155.0" width="6.2" height="10.4" rx="2"/><rect class="sd" x="546.2" y="160.2" width="6.2" height="67.8" rx="2"/><rect class="gh" x="546.2" y="144.6" width="6.2" height="15.6" rx="2"/><rect class="sd" x="554.0" y="160.2" width="6.2" height="67.8" rx="2"/><rect class="gh" x="554.0" y="144.6" width="6.2" height="15.6" rx="2"/><rect class="sd" x="561.8" y="160.2" width="6.2" height="67.8" rx="2"/><rect class="gh" x="561.8" y="139.4" width="6.2" height="20.9" rx="2"/><rect class="sd" x="569.6" y="160.2" width="6.2" height="67.8" rx="2"/><rect class="gh" x="569.6" y="139.4" width="6.2" height="20.9" rx="2"/><rect class="sd" x="577.4" y="160.2" width="6.2" height="67.8" rx="2"/><rect class="gh" x="577.4" y="139.4" width="6.2" height="20.9" rx="2"/><rect class="sd" x="585.2" y="160.2" width="6.2" height="67.8" rx="2"/><rect class="gh" x="585.2" y="123.7" width="6.2" height="36.5" rx="2"/><rect class="sd" x="593.0" y="160.2" width="6.2" height="67.8" rx="2"/><rect class="gh" x="593.0" y="118.5" width="6.2" height="41.7" rx="2"/><rect class="sd" x="600.8" y="160.2" width="6.2" height="67.8" rx="2"/><rect class="gh" x="600.8" y="108.1" width="6.2" height="52.1" rx="2"/><rect class="sd" x="620.8" y="139.4" width="6.2" height="88.6" rx="2"/><rect class="gh" x="620.8" y="123.7" width="6.2" height="15.6" rx="2"/><rect class="sd" x="628.6" y="139.4" width="6.2" height="88.6" rx="2"/><rect class="gh" x="628.6" y="113.3" width="6.2" height="26.1" rx="2"/><rect class="sd" x="636.4" y="139.4" width="6.2" height="88.6" rx="2"/><rect class="gh" x="636.4" y="113.3" width="6.2" height="26.1" rx="2"/><rect class="sd" x="644.2" y="139.4" width="6.2" height="88.6" rx="2"/><rect class="gh" x="644.2" y="108.1" width="6.2" height="31.3" rx="2"/><rect class="sd" x="652.0" y="139.4" width="6.2" height="88.6" rx="2"/><rect class="gh" x="652.0" y="102.9" width="6.2" height="36.5" rx="2"/><rect class="sd" x="659.8" y="139.4" width="6.2" height="88.6" rx="2"/><rect class="gh" x="659.8" y="97.6" width="6.2" height="41.7" rx="2"/><rect class="sd" x="667.6" y="139.4" width="6.2" height="88.6" rx="2"/><rect class="gh" x="667.6" y="92.4" width="6.2" height="46.9" rx="2"/><rect class="sd" x="675.4" y="139.4" width="6.2" height="88.6" rx="2"/><rect class="gh" x="675.4" y="87.2" width="6.2" height="52.1" rx="2"/><path class="gl" d="M21.0 217.6L87.8 217.6L95.6 217.6L162.4 217.6L170.2 217.6L237.0 217.6L244.8 212.4L311.6 212.4L319.4 207.1L386.2 207.1L394.0 165.4L460.8 165.4L468.6 165.4L535.4 165.4L543.2 160.2L610.0 160.2L617.8 139.4L684.6 139.4" fill="none" stroke-width="8" opacity=".2" stroke-linecap="round" stroke-linejoin="round"/><path class="ed" d="M21.0 217.6L87.8 217.6L95.6 217.6L162.4 217.6L170.2 217.6L237.0 217.6L244.8 212.4L311.6 212.4L319.4 207.1L386.2 207.1L394.0 165.4L460.8 165.4L468.6 165.4L535.4 165.4L543.2 160.2L610.0 160.2L617.8 139.4L684.6 139.4" fill="none" stroke-width="2.5" stroke-linecap="round" stroke-linejoin="round"/><line class="bl" x1="24" x2="676" y1="228" y2="228" stroke-width="1"/><text class="ink" x="24" y="293" font-size="46" font-weight="800" letter-spacing="-1">279 lines never shipped.</text><text class="mut" x="24" y="322" font-size="16.5">72 sessions. The pale part is what plain Claude wrote above the edge.</text></svg>
