<svg xmlns="http://www.w3.org/2000/svg" viewBox="0 0 700 340" font-family="-apple-system,BlinkMacSystemFont,'Segoe UI',Helvetica,Arial,sans-serif" role="img" aria-label="Columns of code sliced by razor&#8217;s edge; the pale tops never ship"><style>.bg{fill:#f2f1ec;stroke:rgba(20,20,19,.14)}.ink{fill:#161612}.mut{fill:#6d6a60}.sd{fill:#b9b5a8}.gh{fill:rgba(20,20,19,.13)}.ed{stroke:#059669}.gl{stroke:#059669}.el{fill:#059669}.bl{stroke:rgba(20,20,19,.14)}@media(prefers-color-scheme:dark){.bg{fill:#141413;stroke:#30363d}.ink{fill:#ffffff}.mut{fill:#b9b9b1}.sd{fill:#3a3a37}.gh{fill:rgba(255,255,255,.10)}.ed{stroke:#3fb950}.gl{stroke:#3fb950}.el{fill:#3fb950}.bl{stroke:#30363d}}</style><rect class="bg" width="700" height="340" rx="14"/><text class="el" x="24" y="196" font-size="13.5" font-weight="700">&#9472; the razor&#8217;s edge</text><rect class="sd" x="24" y="222.4" width="13" height="5.6" rx="2"/><rect class="gh" x="24" y="205.7" width="13" height="16.7" rx="2"/><rect class="sd" x="39" y="222.4" width="13" height="5.6" rx="2"/><rect class="gh" x="39" y="205.7" width="13" height="16.7" rx="2"/><rect class="sd" x="54" y="222.4" width="13" height="5.6" rx="2"/><rect class="gh" x="54" y="205.7" width="13" height="16.7" rx="2"/><rect class="sd" x="100.1" y="222.4" width="13" height="5.6" rx="2"/><rect class="gh" x="100.1" y="188.9" width="13" height="33.5" rx="2"/><rect class="sd" x="115.1" y="222.4" width="13" height="5.6" rx="2"/><rect class="gh" x="115.1" y="183.3" width="13" height="39.1" rx="2"/><rect class="sd" x="130.1" y="222.4" width="13" height="5.6" rx="2"/><rect class="gh" x="130.1" y="66" width="13" height="156.4" rx="2"/><rect class="sd" x="176.3" y="211.2" width="13" height="16.8" rx="2"/><rect class="sd" x="191.3" y="211.2" width="13" height="16.8" rx="2"/><rect class="sd" x="206.3" y="211.2" width="13" height="16.8" rx="2"/><rect class="sd" x="252.4" y="211.2" width="13" height="16.8" rx="2"/><rect class="gh" x="252.4" y="183.3" width="13" height="27.9" rx="2"/><rect class="sd" x="267.4" y="211.2" width="13" height="16.8" rx="2"/><rect class="gh" x="267.4" y="183.3" width="13" height="27.9" rx="2"/><rect class="sd" x="282.4" y="211.2" width="13" height="16.8" rx="2"/><rect class="gh" x="282.4" y="66" width="13" height="145.2" rx="2"/><rect class="sd" x="328.5" y="183.3" width="13" height="44.7" rx="2"/><rect class="gh" x="328.5" y="161" width="13" height="22.3" rx="2"/><rect class="sd" x="343.5" y="183.3" width="13" height="44.7" rx="2"/><rect class="gh" x="343.5" y="161" width="13" height="22.3" rx="2"/><rect class="sd" x="358.5" y="183.3" width="13" height="44.7" rx="2"/><rect class="gh" x="358.5" y="161" width="13" height="22.3" rx="2"/><rect class="sd" x="404.6" y="166.6" width="13" height="61.4" rx="2"/><rect class="gh" x="404.6" y="149.8" width="13" height="16.8" rx="2"/><rect class="sd" x="419.6" y="166.6" width="13" height="61.4" rx="2"/><rect class="gh" x="419.6" y="149.8" width="13" height="16.8" rx="2"/><rect class="sd" x="434.6" y="166.6" width="13" height="61.4" rx="2"/><rect class="gh" x="434.6" y="149.8" width="13" height="16.8" rx="2"/><rect class="sd" x="480.8" y="211.2" width="13" height="16.8" rx="2"/><rect class="gh" x="480.8" y="200.1" width="13" height="11.1" rx="2"/><rect class="sd" x="495.8" y="211.2" width="13" height="16.8" rx="2"/><rect class="gh" x="495.8" y="200.1" width="13" height="11.1" rx="2"/><rect class="sd" x="510.8" y="211.2" width="13" height="16.8" rx="2"/><rect class="gh" x="510.8" y="188.9" width="13" height="22.3" rx="2"/><rect class="sd" x="556.9" y="183.3" width="13" height="44.7" rx="2"/><rect class="gh" x="556.9" y="166.6" width="13" height="16.7" rx="2"/><rect class="sd" x="571.9" y="183.3" width="13" height="44.7" rx="2"/><rect class="gh" x="571.9" y="166.6" width="13" height="16.7" rx="2"/><rect class="sd" x="586.9" y="183.3" width="13" height="44.7" rx="2"/><rect class="gh" x="586.9" y="133" width="13" height="50.3" rx="2"/><rect class="sd" x="633" y="205.7" width="13" height="22.3" rx="2"/><rect class="gh" x="633" y="149.8" width="13" height="55.9" rx="2"/><rect class="sd" x="648" y="205.7" width="13" height="22.3" rx="2"/><rect class="gh" x="648" y="105.1" width="13" height="100.6" rx="2"/><rect class="sd" x="663" y="205.7" width="13" height="22.3" rx="2"/><rect class="gh" x="663" y="105.1" width="13" height="100.6" rx="2"/><path class="gl" d="M21 222.4L70 222.4L97.1 222.4L146.1 222.4L173.3 211.2L222.3 211.2L249.4 211.2L298.4 211.2L325.5 183.3L374.5 183.3L401.6 166.6L450.6 166.6L477.8 211.2L526.8 211.2L553.9 183.3L602.9 183.3L630 205.7L679 205.7" fill="none" stroke-width="8" opacity=".2" stroke-linecap="round" stroke-linejoin="round"/><path class="ed" d="M21 222.4L70 222.4L97.1 222.4L146.1 222.4L173.3 211.2L222.3 211.2L249.4 211.2L298.4 211.2L325.5 183.3L374.5 183.3L401.6 166.6L450.6 166.6L477.8 211.2L526.8 211.2L553.9 183.3L602.9 183.3L630 205.7L679 205.7" fill="none" stroke-width="2.5" stroke-linecap="round" stroke-linejoin="round"/><line class="bl" x1="24" x2="676" y1="228" y2="228" stroke-width="1"/><text class="ink" x="24" y="293" font-size="46" font-weight="800" letter-spacing="-1">176 lines never shipped.</text><text class="mut" x="24" y="322" font-size="16.5">27 Opus sessions. The pale part is what plain Claude wrote above the edge.</text></svg>