<?xml version="1.0" encoding="UTF-8" standalone="no"?><!DOCTYPE svg PUBLIC "-//W3C//DTD SVG 1.1//EN" "http://www.w3.org/Graphics/SVG/1.1/DTD/svg11.dtd"><svg width="240" height="240" viewBox="0 0 123 123" version="1.1" xmlns="http://www.w3.org/2000/svg" xmlns:xlink="http://www.w3.org/1999/xlink" xml:space="preserve" xmlns:serif="http://www.serif.com/" style="fill-rule:evenodd;clip-rule:evenodd;stroke-linejoin:round;stroke-miterlimit:2;"><path d="M52.707,35.634c0.021,-0.259 0.04,-0.249 0.021,-0.259c-0.426,-0.239 -0.413,1.057 -0.798,2.702c-6.357,27.101 -23.828,33.343 -33.701,35.86c-7.252,1.849 -15.328,2.278 -16.399,2.233c-0.409,-0.017 -0.218,-0.415 0.949,-4.067c1.519,-4.751 1.503,-4.988 2.163,-5.015c33.859,-1.353 40.795,-22.663 41.951,-25.596c4.312,-10.95 1.601,-13.789 6.519,-17.716c2.312,-1.846 6.644,-2.786 6.823,-2.729c0.521,0.167 -0.158,10.632 -0.218,11.555c-0.549,8.458 -2.468,18.203 -2.641,18.753c-0.447,1.417 1.703,-1.135 4.681,-2.598c5.54,-2.721 8.454,-2.394 10.764,-2.427c0.431,-0.006 0.32,-0.198 2.103,-2.856c18.933,-28.217 45.896,-26.978 46.108,-26.99c0.264,-0.015 0.267,0.24 0.104,0.4c-0.766,0.749 -1.461,1.429 -8.929,9.973c-2.469,2.825 -2.413,2.851 -4.886,5.69c-3.078,3.533 -2.796,3.857 -3.195,3.926c-0.447,0.077 -0.115,-0.229 0.414,-1.476c3.685,-8.697 5.445,-9.561 4.134,-9.25c-2.577,0.613 -9.909,2.202 -17.613,6.936c-1.358,0.834 -10.093,6.202 -14.39,13.77c-0.238,0.42 0.055,0.382 0.522,0.497c1.154,0.286 8.849,2.19 12.109,8.625c3.707,7.316 -0.878,12.482 -3.027,14.875c-10.693,11.906 -26.079,4.253 -17.414,-15.803c0.097,-0.224 0.313,-0.725 3.05,0.15c0.975,0.312 0.568,0.65 0.316,1.637c-2.51,9.822 5.42,15.717 10.758,12.889c1.569,-0.831 1.758,-3.795 1.578,-5.225c-1.222,-9.712 -18.005,-16.363 -28.278,-6.894c-0.49,0.452 -1.356,4.967 -3.552,11.412c-9.22,27.06 -18.456,34.334 -19.275,35.084c-4.273,3.914 -10.2,3.871 -8.071,-2.1c2.39,-6.702 5.806,-4.556 5.927,-4.526c4.332,1.079 10.472,-5.971 15.112,-19.52c7.11,-20.76 6.25,-40.454 6.281,-41.919Z" style="fill:#241c1b;"/></svg>
